<?xml version="1.0" standalone="no"?>
<!DOCTYPE svg PUBLIC "-//W3C//DTD SVG 20010904//EN"
 "http://www.w3.org/TR/2001/REC-SVG-20010904/DTD/svg10.dtd">
<svg version="1.0" xmlns="http://www.w3.org/2000/svg"
 width="500.000000pt" height="500.000000pt" viewBox="0 0 500.000000 500.000000"
 preserveAspectRatio="xMidYMid meet">
<metadata>
Created by potrace 1.14, written by Peter Selinger 2001-2017
</metadata>
<g transform="translate(0.000000,500.000000) scale(0.100000,-0.100000)"
fill="#000000" stroke="none">
<path d="M2021 3808 c-1 -238 -5 -436 -9 -440 -4 -3 -50 -17 -103 -31 l-95
-25 -85 30 c-241 86 -335 118 -346 118 -10 0 -13 -117 -13 -550 l0 -550 1130
0 1130 0 0 483 c0 266 -3 586 -7 711 -5 200 -8 226 -22 222 -9 -3 -150 -40
-314 -82 l-298 -78 -32 19 c-18 10 -231 151 -474 312 -244 161 -447 293 -451
293 -4 0 -9 -195 -11 -432z m396 141 c191 -127 385 -256 431 -287 46 -30 81
-56 79 -58 -5 -5 -842 -224 -856 -224 -8 0 -11 115 -11 400 0 220 2 400 4 400
3 0 161 -104 353 -231z m1173 -884 l0 -665 -150 0 -150 0 0 194 0 195 -52 19
c-29 10 -88 31 -130 46 l-78 28 0 353 0 353 63 17 c273 73 465 123 480 124 16
1 17 -37 17 -664z m-600 169 c0 -316 -1 -336 -17 -331 -33 9 -848 299 -881
313 -32 13 -33 15 -30 66 l3 52 65 19 c201 56 818 216 838 216 l22 1 0 -336z
m-1292 73 l62 -21 0 -443 0 -443 -175 0 -175 0 0 505 0 505 113 -41 c61 -23
140 -50 175 -62z m322 -28 c0 -29 -4 -39 -12 -36 -7 3 -37 14 -67 24 l-54 18
54 17 c77 24 79 24 79 -23z m-95 -53 l90 -33 0 -399 0 -399 -100 3 c-55 2
-102 6 -105 9 -7 7 -12 782 -5 820 3 18 11 33 18 32 7 0 53 -15 102 -33z m555
-196 c217 -77 421 -150 453 -161 l57 -21 0 -224 0 -224 -465 0 -465 0 0 385
c0 308 3 385 13 385 7 0 190 -63 407 -140z m669 -236 l101 -36 0 -179 0 -179
-110 0 -110 0 0 215 c0 125 4 215 9 215 5 0 55 -16 110 -36z"/>
<path d="M1867 2139 c-8 -19 -38 -87 -66 -152 -28 -65 -51 -121 -51 -123 0 -2
13 -4 29 -4 23 0 31 6 40 30 9 28 13 30 59 30 46 0 51 -2 62 -30 10 -25 18
-30 46 -30 19 0 34 2 34 4 0 6 -130 299 -134 304 -3 2 -11 -11 -19 -29z m32
-156 c1 -7 -8 -13 -19 -13 -23 0 -25 12 -8 43 11 21 11 21 19 2 4 -11 8 -26 8
-32z"/>
<path d="M3369 2024 c-35 -81 -65 -151 -67 -156 -2 -4 10 -8 26 -8 23 0 32 6
42 30 11 28 16 30 62 30 46 0 50 -2 59 -30 9 -26 16 -30 46 -30 24 0 34 4 30
13 -25 65 -121 284 -127 290 -4 4 -36 -58 -71 -139z m91 -46 c0 -5 -11 -8 -25
-8 -27 0 -31 10 -14 42 11 21 12 21 25 -3 7 -13 13 -27 14 -31z"/>
<path d="M1460 2010 l0 -150 30 0 c29 0 30 2 30 45 0 40 2 45 23 45 16 0 30
-13 49 -45 25 -40 31 -45 64 -45 l36 0 -22 33 c-43 64 -44 73 -21 103 37 47
23 122 -28 149 -18 9 -56 15 -96 15 l-65 0 0 -150z m140 71 c5 -11 10 -24 10
-30 0 -19 -32 -41 -61 -41 -28 0 -29 2 -29 45 0 45 0 45 35 45 24 0 37 -6 45
-19z"/>
<path d="M2100 2010 l0 -150 78 0 c59 0 85 5 109 20 68 41 89 116 55 194 -27
61 -78 85 -174 86 l-68 0 0 -150z m166 67 c21 -19 27 -32 27 -67 0 -57 -35
-90 -94 -90 l-39 0 0 90 0 90 39 0 c27 0 49 -7 67 -23z"/>
<path d="M2460 2010 l0 -150 30 0 30 0 0 60 0 60 65 0 65 0 0 -60 0 -60 30 0
30 0 0 150 0 150 -30 0 -30 0 0 -60 0 -60 -65 0 -65 0 0 60 0 60 -30 0 -30 0
0 -150z"/>
<path d="M2830 2010 l0 -150 30 0 30 0 0 150 0 150 -30 0 -30 0 0 -150z"/>
<path d="M3010 2026 c0 -74 -3 -141 -6 -150 -5 -13 1 -16 30 -16 l36 0 0 60
c0 33 4 60 8 60 4 0 27 -27 50 -60 40 -56 45 -60 83 -60 l40 0 -61 79 c-33 44
-60 84 -60 88 0 5 25 33 55 63 30 30 55 58 55 62 0 4 -15 8 -34 8 -29 0 -42
-9 -85 -57 l-51 -57 0 57 c0 57 0 57 -30 57 l-30 0 0 -134z"/>
<path d="M2570 1457 l0 -157 30 0 30 0 0 62 0 62 40 -55 c23 -30 44 -55 49
-57 4 -1 28 26 52 60 l44 63 3 -67 c3 -68 3 -68 32 -68 l30 0 0 155 c0 85 -2
155 -5 155 -2 0 -38 -47 -79 -106 l-74 -105 -25 33 c-13 18 -47 66 -76 107
l-51 74 0 -156z"/>
<path d="M1810 1450 l0 -150 30 0 30 0 0 60 0 60 65 0 65 0 0 -60 0 -60 30 0
30 0 0 150 0 150 -30 0 -30 0 0 -60 0 -60 -65 0 -65 0 0 60 0 60 -30 0 -30 0
0 -150z"/>
<path d="M2240 1581 c-38 -20 -80 -89 -80 -130 1 -44 37 -109 72 -131 44 -26
122 -27 165 0 38 23 73 86 73 131 0 46 -43 113 -84 133 -45 21 -103 20 -146
-3z m141 -67 c55 -59 14 -156 -67 -156 -77 0 -115 102 -59 157 34 35 93 34
126 -1z"/>
<path d="M2990 1450 l0 -150 110 0 110 0 0 30 0 30 -75 0 -75 0 0 30 0 30 66
0 65 0 -3 28 c-3 26 -6 27 -65 30 -62 3 -63 3 -63 32 l0 30 70 0 70 0 0 30 0
30 -105 0 -105 0 0 -150z"/>
<path d="M3300 895 l0 -155 35 0 35 0 0 86 0 86 99 -91 c54 -50 101 -91 105
-91 3 0 6 70 6 156 l0 155 -32 -3 -33 -3 3 -82 c2 -46 0 -83 -4 -83 -4 0 -51
41 -105 90 -53 50 -100 90 -103 90 -3 0 -6 -70 -6 -155z"/>
<path d="M1166 1019 c-21 -16 -26 -29 -26 -63 0 -48 11 -62 78 -95 74 -37 40
-90 -40 -62 -28 10 -35 9 -45 -6 -7 -9 -13 -20 -13 -24 0 -12 61 -29 107 -29
36 0 50 6 75 30 25 26 29 36 24 62 -8 41 -21 55 -78 84 -33 17 -48 31 -48 44
0 25 36 35 75 20 25 -9 31 -8 42 6 19 26 17 31 -18 43 -50 17 -103 13 -133
-10z"/>
<path d="M1485 1021 c-43 -26 -62 -51 -74 -96 -25 -97 43 -185 144 -185 157 0
216 199 83 280 -42 26 -113 26 -153 1z m139 -72 c32 -37 33 -77 5 -113 -31
-39 -63 -49 -104 -32 -39 17 -55 42 -55 89 0 82 101 119 154 56z"/>
<path d="M1810 890 l0 -150 100 0 100 0 0 30 0 30 -70 0 -70 0 0 120 0 120
-30 0 -30 0 0 -150z"/>
<path d="M2110 921 c0 -110 2 -120 24 -144 51 -55 142 -53 190 4 25 29 26 37
26 145 l0 114 -30 0 -30 0 0 -104 c0 -116 -9 -136 -59 -136 -50 0 -61 25 -61
138 l0 102 -30 0 -30 0 0 -119z"/>
<path d="M2440 1010 c0 -28 3 -30 35 -30 l35 0 0 -120 0 -120 30 0 30 0 0 120
0 120 35 0 c32 0 35 2 35 30 l0 30 -100 0 -100 0 0 -30z"/>
<path d="M2740 890 l0 -150 30 0 30 0 0 150 0 150 -30 0 -30 0 0 -150z"/>
<path d="M2970 1018 c-69 -47 -91 -144 -47 -208 68 -103 214 -95 266 14 27 54
26 83 -2 136 -41 78 -146 106 -217 58z m145 -63 c56 -55 18 -155 -59 -155 -53
0 -91 37 -91 90 0 34 6 47 28 66 38 32 90 32 122 -1z"/>
<path d="M3709 1011 c-51 -52 -34 -105 47 -144 56 -28 66 -45 38 -68 -12 -10
-25 -10 -57 -2 -65 18 -97 -22 -37 -47 92 -38 192 14 173 91 -9 35 -21 48 -75
75 -75 38 -59 87 21 64 39 -11 51 -6 51 21 0 24 -36 39 -91 39 -31 0 -47 -7
-70 -29z"/>
<path d="M1385 466 c12 -8 16 -20 12 -35 -3 -11 -1 -21 4 -21 5 0 9 13 9 29 0
16 6 32 13 34 6 3 -3 6 -22 6 -32 1 -33 0 -16 -13z"/>
<path d="M1482 445 c0 -22 2 -32 5 -22 2 9 13 17 24 17 11 0 18 -4 14 -9 -3
-5 -1 -12 5 -16 6 -4 10 9 10 32 -1 31 -3 35 -11 21 -5 -10 -16 -18 -24 -18
-7 0 -16 8 -18 18 -3 9 -5 -1 -5 -23z"/>
<path d="M1595 468 c-11 -31 2 -53 31 -55 20 -1 22 0 7 4 -27 5 -30 20 -5 26
16 4 16 5 0 6 -26 2 -22 19 5 24 19 4 18 4 -6 6 -15 0 -30 -5 -32 -11z"/>
<path d="M1760 445 c0 -19 5 -35 10 -35 6 0 10 7 10 15 0 8 7 15 15 15 8 0 15
-7 15 -15 0 -8 5 -15 10 -15 12 0 10 59 -2 66 -4 3 -8 -2 -8 -10 0 -9 -7 -16
-15 -16 -8 0 -15 7 -15 15 0 8 -4 15 -10 15 -5 0 -10 -16 -10 -35z"/>
<path d="M1882 463 c-14 -26 3 -53 34 -53 14 0 27 7 31 16 15 39 -46 73 -65
37z m47 -29 c-15 -18 -28 -18 -36 2 -8 20 17 36 34 22 10 -8 10 -14 2 -24z"/>
<path d="M2003 450 c2 -30 5 -35 27 -35 21 0 26 5 28 33 2 18 -1 32 -7 32 -6
0 -11 -14 -11 -31 0 -39 -22 -34 -32 7 -6 27 -6 27 -5 -6z"/>
<path d="M2114 468 c-4 -6 0 -16 9 -23 21 -15 22 -26 2 -19 -8 4 -15 1 -15 -5
0 -6 11 -11 25 -11 28 0 35 27 10 36 -8 4 -15 10 -15 15 0 4 7 6 15 3 8 -4 15
-1 15 5 0 15 -37 14 -46 -1z"/>
<path d="M2210 445 c0 -33 2 -35 33 -34 23 1 26 3 10 6 -27 5 -30 20 -5 26 16
4 16 5 0 6 -10 0 -18 5 -18 10 0 5 8 12 18 14 10 3 6 5 -10 6 -25 1 -28 -2
-28 -34z"/>
<path d="M2387 473 c-11 -10 -8 -51 4 -58 18 -12 59 4 59 23 0 32 -43 56 -63
35z m42 -17 c9 -10 8 -16 -4 -26 -19 -16 -41 1 -32 24 8 20 21 20 36 2z"/>
<path d="M2501 443 c1 -21 3 -30 6 -21 2 9 12 19 21 21 15 4 15 5 0 6 -26 2
-22 19 5 24 19 4 18 4 -5 6 -26 1 -28 -2 -27 -36z"/>
<path d="M2658 473 c6 -2 12 -18 12 -34 0 -16 5 -29 10 -29 6 0 10 13 10 29 0
16 6 32 13 34 6 3 -4 5 -23 5 -19 0 -29 -2 -22 -5z"/>
<path d="M2760 480 c-7 -18 -7 -70 1 -70 5 0 9 7 9 15 0 8 7 15 15 15 8 0 15
-7 15 -15 0 -8 5 -15 10 -15 6 0 10 16 10 35 0 19 -4 35 -10 35 -5 0 -10 -7
-10 -15 0 -21 -28 -19 -33 3 -3 9 -6 15 -7 12z"/>
<path d="M2870 445 c0 -33 2 -35 33 -34 23 1 26 3 10 6 -27 5 -30 20 -5 26 16
4 16 5 0 6 -10 0 -18 5 -18 10 0 5 8 12 18 14 10 3 6 5 -10 6 -25 1 -28 -2
-28 -34z"/>
<path d="M3040 445 c0 -19 5 -35 11 -35 5 0 7 5 4 10 -3 6 4 14 17 19 17 7 19
10 6 10 -10 1 -18 5 -18 10 0 5 8 12 18 14 10 3 6 5 -10 6 -25 1 -28 -2 -28
-34z"/>
<path d="M3130 461 c0 -34 12 -51 35 -51 13 0 26 7 29 16 9 24 7 54 -4 54 -5
0 -10 -14 -10 -31 0 -38 -24 -35 -28 4 -4 31 -22 37 -22 8z"/>
<path d="M3248 473 c6 -2 12 -18 12 -34 0 -16 5 -29 10 -29 6 0 10 13 10 29 0
16 6 32 13 34 6 3 -4 5 -23 5 -19 0 -29 -2 -22 -5z"/>
<path d="M3340 461 c0 -34 12 -51 35 -51 13 0 26 7 29 16 9 24 7 54 -4 54 -5
0 -10 -13 -10 -30 0 -20 -5 -30 -15 -30 -10 0 -15 10 -15 30 0 17 -4 30 -10
30 -5 0 -10 -9 -10 -19z"/>
<path d="M3460 443 c0 -28 3 -34 10 -23 7 12 12 12 22 2 19 -19 24 -15 23 21
0 27 -4 32 -27 35 -26 3 -28 1 -28 -35z m40 12 c0 -8 -7 -15 -15 -15 -9 0 -12
6 -9 15 4 8 10 15 15 15 5 0 9 -7 9 -15z"/>
<path d="M3570 445 c0 -33 2 -35 33 -34 23 1 26 3 10 6 -27 5 -31 23 -5 24 11
1 8 4 -8 9 l-25 7 25 11 25 11 -27 0 c-25 1 -28 -2 -28 -34z"/>
</g>
</svg>
